<mxfile host="app.diagrams.net" modified="2024-10-02T15:22:27.887Z" agent="Mozilla/5.0 (Windows NT 10.0; Win64; x64) AppleWebKit/537.36 (KHTML, like Gecko) Chrome/129.0.0.0 Safari/537.36 Edg/129.0.0.0" etag="NOHh4G-kTGu_6PoZ3hOf" version="24.6.4" type="github">
  <diagram name="Page-1" id="7yUxPDaj3mUf4dnK2KXu">
    <mxGraphModel dx="1226" dy="1725" grid="1" gridSize="10" guides="1" tooltips="1" connect="1" arrows="1" fold="1" page="1" pageScale="1" pageWidth="850" pageHeight="1100" math="0" shadow="0">
      <root>
        <mxCell id="0" />
        <mxCell id="1" parent="0" />
        <mxCell id="A1f2im-_OMIdAsEPhX09-11" style="edgeStyle=orthogonalEdgeStyle;rounded=0;orthogonalLoop=1;jettySize=auto;html=1;entryX=0;entryY=0.5;entryDx=0;entryDy=0;" edge="1" parent="1" source="A1f2im-_OMIdAsEPhX09-1" target="A1f2im-_OMIdAsEPhX09-10">
          <mxGeometry relative="1" as="geometry" />
        </mxCell>
        <mxCell id="A1f2im-_OMIdAsEPhX09-1" value="User&lt;div&gt;&lt;br&gt;&lt;/div&gt;" style="shape=umlActor;verticalLabelPosition=bottom;verticalAlign=top;html=1;outlineConnect=0;" vertex="1" parent="1">
          <mxGeometry x="70" y="170" width="30" height="60" as="geometry" />
        </mxCell>
        <mxCell id="A1f2im-_OMIdAsEPhX09-14" style="edgeStyle=orthogonalEdgeStyle;rounded=0;orthogonalLoop=1;jettySize=auto;html=1;entryX=0;entryY=0.5;entryDx=0;entryDy=0;" edge="1" parent="1" source="A1f2im-_OMIdAsEPhX09-4" target="A1f2im-_OMIdAsEPhX09-6">
          <mxGeometry relative="1" as="geometry" />
        </mxCell>
        <mxCell id="A1f2im-_OMIdAsEPhX09-4" value="Searchie Portal" style="rounded=1;whiteSpace=wrap;html=1;" vertex="1" parent="1">
          <mxGeometry x="320" y="170" width="120" height="60" as="geometry" />
        </mxCell>
        <mxCell id="A1f2im-_OMIdAsEPhX09-27" style="edgeStyle=orthogonalEdgeStyle;rounded=0;orthogonalLoop=1;jettySize=auto;html=1;entryX=0.5;entryY=0;entryDx=0;entryDy=0;" edge="1" parent="1" source="A1f2im-_OMIdAsEPhX09-6" target="A1f2im-_OMIdAsEPhX09-16">
          <mxGeometry relative="1" as="geometry" />
        </mxCell>
        <mxCell id="A1f2im-_OMIdAsEPhX09-6" value="7words.ai" style="rounded=1;whiteSpace=wrap;html=1;" vertex="1" parent="1">
          <mxGeometry x="600" y="170" width="120" height="60" as="geometry" />
        </mxCell>
        <mxCell id="A1f2im-_OMIdAsEPhX09-12" style="edgeStyle=orthogonalEdgeStyle;rounded=0;orthogonalLoop=1;jettySize=auto;html=1;" edge="1" parent="1" source="A1f2im-_OMIdAsEPhX09-10" target="A1f2im-_OMIdAsEPhX09-4">
          <mxGeometry relative="1" as="geometry" />
        </mxCell>
        <mxCell id="A1f2im-_OMIdAsEPhX09-10" value="Login" style="ellipse;whiteSpace=wrap;html=1;" vertex="1" parent="1">
          <mxGeometry x="170" y="170" width="80" height="60" as="geometry" />
        </mxCell>
        <mxCell id="A1f2im-_OMIdAsEPhX09-28" style="edgeStyle=orthogonalEdgeStyle;rounded=0;orthogonalLoop=1;jettySize=auto;html=1;entryX=0.5;entryY=0;entryDx=0;entryDy=0;" edge="1" parent="1" source="A1f2im-_OMIdAsEPhX09-16" target="A1f2im-_OMIdAsEPhX09-24">
          <mxGeometry relative="1" as="geometry" />
        </mxCell>
        <mxCell id="A1f2im-_OMIdAsEPhX09-33" style="edgeStyle=orthogonalEdgeStyle;rounded=0;orthogonalLoop=1;jettySize=auto;html=1;" edge="1" parent="1" source="A1f2im-_OMIdAsEPhX09-16" target="A1f2im-_OMIdAsEPhX09-34">
          <mxGeometry relative="1" as="geometry">
            <mxPoint x="520" y="320" as="targetPoint" />
          </mxGeometry>
        </mxCell>
        <mxCell id="A1f2im-_OMIdAsEPhX09-16" value="Stripe" style="ellipse;whiteSpace=wrap;html=1;" vertex="1" parent="1">
          <mxGeometry x="600" y="280" width="120" height="80" as="geometry" />
        </mxCell>
        <mxCell id="A1f2im-_OMIdAsEPhX09-18" value="Flow 1" style="text;html=1;align=center;verticalAlign=middle;whiteSpace=wrap;rounded=0;" vertex="1" parent="1">
          <mxGeometry x="40" y="120" width="90" height="30" as="geometry" />
        </mxCell>
        <mxCell id="A1f2im-_OMIdAsEPhX09-23" value="Unencrypted email" style="text;html=1;align=center;verticalAlign=middle;whiteSpace=wrap;rounded=0;" vertex="1" parent="1">
          <mxGeometry x="480" y="170" width="90" height="30" as="geometry" />
        </mxCell>
        <mxCell id="A1f2im-_OMIdAsEPhX09-32" style="edgeStyle=orthogonalEdgeStyle;rounded=0;orthogonalLoop=1;jettySize=auto;html=1;entryX=0.5;entryY=1;entryDx=0;entryDy=0;" edge="1" parent="1" source="A1f2im-_OMIdAsEPhX09-24" target="A1f2im-_OMIdAsEPhX09-31">
          <mxGeometry relative="1" as="geometry" />
        </mxCell>
        <mxCell id="A1f2im-_OMIdAsEPhX09-24" value="Create new password" style="rounded=1;whiteSpace=wrap;html=1;" vertex="1" parent="1">
          <mxGeometry x="600" y="430" width="120" height="60" as="geometry" />
        </mxCell>
        <mxCell id="A1f2im-_OMIdAsEPhX09-31" value="7words.ai Dashboard" style="rounded=1;whiteSpace=wrap;html=1;" vertex="1" parent="1">
          <mxGeometry x="850" y="170" width="120" height="60" as="geometry" />
        </mxCell>
        <mxCell id="A1f2im-_OMIdAsEPhX09-35" style="edgeStyle=orthogonalEdgeStyle;rounded=0;orthogonalLoop=1;jettySize=auto;html=1;entryX=0.5;entryY=1;entryDx=0;entryDy=0;" edge="1" parent="1" source="A1f2im-_OMIdAsEPhX09-34" target="A1f2im-_OMIdAsEPhX09-4">
          <mxGeometry relative="1" as="geometry" />
        </mxCell>
        <mxCell id="A1f2im-_OMIdAsEPhX09-34" value="Unpaid user" style="rounded=1;whiteSpace=wrap;html=1;" vertex="1" parent="1">
          <mxGeometry x="410" y="290" width="120" height="60" as="geometry" />
        </mxCell>
        <mxCell id="A1f2im-_OMIdAsEPhX09-36" value="Paid user" style="text;html=1;align=center;verticalAlign=middle;whiteSpace=wrap;rounded=0;" vertex="1" parent="1">
          <mxGeometry x="660" y="380" width="60" height="30" as="geometry" />
        </mxCell>
        <mxCell id="A1f2im-_OMIdAsEPhX09-37" style="edgeStyle=orthogonalEdgeStyle;rounded=0;orthogonalLoop=1;jettySize=auto;html=1;exitX=0.5;exitY=1;exitDx=0;exitDy=0;" edge="1" parent="1" source="A1f2im-_OMIdAsEPhX09-36" target="A1f2im-_OMIdAsEPhX09-36">
          <mxGeometry relative="1" as="geometry" />
        </mxCell>
        <mxCell id="A1f2im-_OMIdAsEPhX09-39" style="edgeStyle=orthogonalEdgeStyle;rounded=0;orthogonalLoop=1;jettySize=auto;html=1;entryX=0.5;entryY=0;entryDx=0;entryDy=0;" edge="1" parent="1" source="A1f2im-_OMIdAsEPhX09-41" target="A1f2im-_OMIdAsEPhX09-6">
          <mxGeometry relative="1" as="geometry" />
        </mxCell>
        <mxCell id="A1f2im-_OMIdAsEPhX09-38" value="Authentic User" style="shape=umlActor;verticalLabelPosition=bottom;verticalAlign=top;html=1;outlineConnect=0;" vertex="1" parent="1">
          <mxGeometry x="730" y="-60" width="30" height="60" as="geometry" />
        </mxCell>
        <mxCell id="A1f2im-_OMIdAsEPhX09-40" value="" style="edgeStyle=orthogonalEdgeStyle;rounded=0;orthogonalLoop=1;jettySize=auto;html=1;entryX=0.5;entryY=0;entryDx=0;entryDy=0;" edge="1" parent="1" source="A1f2im-_OMIdAsEPhX09-38" target="A1f2im-_OMIdAsEPhX09-41">
          <mxGeometry relative="1" as="geometry">
            <mxPoint x="660" y="60" as="sourcePoint" />
            <mxPoint x="660" y="170" as="targetPoint" />
          </mxGeometry>
        </mxCell>
        <mxCell id="A1f2im-_OMIdAsEPhX09-41" value="" style="html=1;verticalLabelPosition=bottom;align=center;labelBackgroundColor=#ffffff;verticalAlign=top;strokeWidth=2;strokeColor=#0080F0;shadow=0;dashed=0;shape=mxgraph.ios7.icons.locked;" vertex="1" parent="1">
          <mxGeometry x="648" y="40" width="24" height="30" as="geometry" />
        </mxCell>
        <mxCell id="A1f2im-_OMIdAsEPhX09-44" style="edgeStyle=orthogonalEdgeStyle;rounded=0;orthogonalLoop=1;jettySize=auto;html=1;entryX=0.25;entryY=0;entryDx=0;entryDy=0;" edge="1" parent="1" source="A1f2im-_OMIdAsEPhX09-45" target="A1f2im-_OMIdAsEPhX09-6">
          <mxGeometry relative="1" as="geometry" />
        </mxCell>
        <mxCell id="A1f2im-_OMIdAsEPhX09-43" value="Unauthenticated user" style="shape=umlActor;verticalLabelPosition=bottom;verticalAlign=top;html=1;outlineConnect=0;" vertex="1" parent="1">
          <mxGeometry x="480" y="-40" width="30" height="60" as="geometry" />
        </mxCell>
        <mxCell id="A1f2im-_OMIdAsEPhX09-46" value="" style="edgeStyle=orthogonalEdgeStyle;rounded=0;orthogonalLoop=1;jettySize=auto;html=1;entryX=0.25;entryY=0;entryDx=0;entryDy=0;" edge="1" parent="1" source="A1f2im-_OMIdAsEPhX09-43" target="A1f2im-_OMIdAsEPhX09-45">
          <mxGeometry relative="1" as="geometry">
            <mxPoint x="540" y="30" as="sourcePoint" />
            <mxPoint x="630" y="170" as="targetPoint" />
          </mxGeometry>
        </mxCell>
        <mxCell id="A1f2im-_OMIdAsEPhX09-45" value="" style="sketch=0;aspect=fixed;pointerEvents=1;shadow=0;dashed=0;html=1;strokeColor=none;labelPosition=center;verticalLabelPosition=bottom;verticalAlign=top;align=center;fillColor=#00188D;shape=mxgraph.mscae.enterprise.lock_unlocked" vertex="1" parent="1">
          <mxGeometry x="577.8" y="10" width="22.2" height="30" as="geometry" />
        </mxCell>
        <mxCell id="A1f2im-_OMIdAsEPhX09-52" style="edgeStyle=orthogonalEdgeStyle;rounded=0;orthogonalLoop=1;jettySize=auto;html=1;entryX=0;entryY=0.5;entryDx=0;entryDy=0;" edge="1" parent="1" source="A1f2im-_OMIdAsEPhX09-48" target="A1f2im-_OMIdAsEPhX09-31">
          <mxGeometry relative="1" as="geometry" />
        </mxCell>
        <mxCell id="A1f2im-_OMIdAsEPhX09-48" value="" style="html=1;verticalLabelPosition=bottom;align=center;labelBackgroundColor=#ffffff;verticalAlign=top;strokeWidth=2;strokeColor=#0080F0;shadow=0;dashed=0;shape=mxgraph.ios7.icons.locked;" vertex="1" parent="1">
          <mxGeometry x="740" y="180" width="24" height="30" as="geometry" />
        </mxCell>
        <mxCell id="A1f2im-_OMIdAsEPhX09-50" style="edgeStyle=orthogonalEdgeStyle;rounded=0;orthogonalLoop=1;jettySize=auto;html=1;entryX=-0.017;entryY=0.653;entryDx=0;entryDy=0;entryPerimeter=0;" edge="1" parent="1" source="A1f2im-_OMIdAsEPhX09-6" target="A1f2im-_OMIdAsEPhX09-48">
          <mxGeometry relative="1" as="geometry" />
        </mxCell>
      </root>
    </mxGraphModel>
  </diagram>
</mxfile>
